#!OML:ASF H:\ManfredETheater\Project 1\Capture day 1\Session 1\subject.ASF
:FULLY-SPECIFIED
:DEGREES
401
root -5.84846 13.8704 11.3038 38.2121 51.9074 23.7203
lowerback 31.4823 -4.76856 -2.00407
upperback 2.51416 -6.99829 -2.87079
thorax -13.6844 -2.96125 0.74352
lowerneck -4.47288 -16.95 -14.4901
upperneck -17.6678 -20.4116 26.0752
head 0.0982636 -10.5199 9.28603
rclavicle 3.57812e-015 7.7526e-014
rhumerus -42.2113 0.591383 -86.2885
rradius 81.3035
rwrist -3.41628
rhand -31.3839 -3.43104
rfingers 7.12502
rthumb -4.65381 -33.3599
lclavicle 3.57812e-015 7.7526e-014
lhumerus -32.0886 10.5425 82.8367
lradius 79.3129
lwrist -4.14927
lhand -25.3955 -16.7129
lfingers 7.12502
lthumb 1.12955 13.2638
rfemur -69.5872 -21.075 19.3087
rtibia 100.692
rfoot -31.8375 -20.4653
rtoes -34.3471
lfemur -39.1954 6.3651 1.76647
ltibia 77.4122
lfoot -7.34373 -9.16979
ltoes -27.6668
402
root -5.81724 13.9969 11.4168 37.5722 51.4267 22.9357
lowerback 31.4114 -4.70171 -1.75912
upperback 2.38769 -6.84245 -2.84727
thorax -13.8262 -2.90639 0.581256
lowerneck -4.67648 -16.9216 -14.357
upperneck -17.4911 -20.3798 25.94
head 0.140035 -10.4877 9.2059
rclavicle 4.23411e-014 -6.26172e-014
rhumerus -42.0839 1.50174 -86.3435
rradius 80.9573
rwrist -2.66824
rhand -31.5072 -2.75436
rfingers 7.12502
rthumb -4.77287 -32.6806
lclavicle 4.23411e-014 -6.26172e-014
lhumerus -31.5081 9.53664 83.4634
lradius 79.0607
lwrist -4.70435
lhand -25.416 -17.2168
lfingers 7.12502
lthumb 1.10982 12.7601
rfemur -68.6223 -20.1794 19.9985
rtibia 99.3864
rfoot -31.4099 -21.375
rtoes -33.5092
lfemur -40.8403 6.88393 0.405474
ltibia 79.5302
lfoot -9.71544 -10.4111
ltoes -27.7723
403
root -5.78609 14.1191 11.5265 36.9062 50.8914 22.1084
lowerback 31.3632 -4.58588 -1.54151
upperback 2.29074 -6.62742 -2.80906
thorax -13.9374 -2.8241 0.424554
lowerneck -4.83536 -16.9059 -14.2289
upperneck -17.408 -20.3562 25.8364
head 0.154895 -10.4667 9.14396
rclavicle -5.62561e-014 -3.39922e-014
rhumerus -41.8996 2.34434 -86.3031
rradius 80.6324
rwrist -2.05806
rhand -31.6099 -2.05442
rfingers 7.12502
rthumb -4.87207 -31.9784
lclavicle -5.62561e-014 -3.39922e-014
lhumerus -30.8206 8.47637 84.1352
lradius 78.7568
lwrist -5.24451
lhand -25.5451 -17.6838
lfingers 7.12502
lthumb 0.985097 12.2936
rfemur -67.79 -19.3451 20.7121
rtibia 98.184
rfoot -30.8228 -22.1291
rtoes -32.6452
lfemur -42.5495 7.43137 -1.07316
ltibia 81.6304
lfoot -11.9867 -11.8418
ltoes -27.8468
404
root -5.75417 14.2375 11.6337 36.2341 50.2925 21.2581
lowerback 31.3378 -4.42756 -1.35754
upperback 2.2151 -6.36566 -2.76281
thorax -14.0274 -2.71931 0.27504
lowerneck -4.948 -16.8963 -14.108
upperneck -17.4073 -20.3335 25.76
head 0.143945 -10.4525 9.09979
rclavicle 7.09661e-014 2.90226e-014
rhumerus -41.6684 3.10395 -86.1807
rradius 80.3206
rwrist -1.6177
rhand -31.669 -1.37336
rfingers 7.12502
rthumb -4.92912 -31.296
lclavicle 7.09661e-014 2.90226e-014
lhumerus -30.0524 7.3551 84.832
lradius 78.4064
lwrist -5.69287
lhand -25.7944 -18.0854
lfingers 7.12502
lthumb 0.744303 11.8931
rfemur -67.1075 -18.5872 21.4222
rtibia 97.115
rfoot -30.0287 -22.6744
rtoes -31.7862
lfemur -44.279 7.93887 -2.6573
ltibia 83.6293
lfoot -14.1362 -13.4884
ltoes -27.7501
405
root -5.72068 14.3518 11.7391 35.5778 49.6207 20.4005
lowerback 31.3203 -4.23237 -1.22137
upperback 2.15774 -6.06938 -2.70758
thorax -14.092 -2.59677 0.145551
lowerneck -5.03761 -16.8892 -14.0006
upperneck -17.467 -20.3075 25.7012
head 0.115587 -10.4403 9.06868
rclavicle 5.76476e-014 -1.19271e-015
rhumerus -41.3775 3.77232 -85.987
rradius 80.0019
rwrist -1.33284
rhand -31.7048 -0.739321
rfingers 7.12502
rthumb -4.96374 -30.6612
lclavicle 5.76476e-014 -1.19271e-015
lhumerus -29.223 6.18326 85.5391
lradius 78.0225
lwrist -5.97736
lhand -26.135 -18.4197
lfingers 7.12502
lthumb 0.415384 11.5597
rfemur -66.606 -17.9129 22.1038
rtibia 96.2131
rfoot -28.9817 -22.953
rtoes -30.9121
lfemur -45.9877 8.34444 -4.32416
ltibia 85.451
lfoot -16.094 -15.341
ltoes -27.5376
406
root -5.68505 14.4616 11.8436 34.9381 48.8672 19.5379
lowerback 31.3055 -4.00609 -1.13654
upperback 2.11534 -5.74849 -2.64833
thorax -14.1336 -2.46065 0.03678
lowerneck -5.11344 -16.8753 -13.8976
upperneck -17.5689 -20.2681 25.642
head 0.0710198 -10.4236 9.04402
rclavicle -2.44505e-014 5.60573e-014
rhumerus -41.0271 4.34242 -85.7445
rradius 79.6564
rwrist -1.17854
rhand -31.7251 -0.203457
rfingers 7.12502
rthumb -4.98328 -30.1249
lclavicle -2.44505e-014 5.60573e-014
lhumerus -28.3622 4.97845 86.2302
lradius 77.6191
lwrist -6.07736
lhand -26.5172 -18.7022
lfingers 7.12502
lthumb 0.0462349 11.2775
rfemur -66.3028 -17.3215 22.7398
rtibia 95.5055
rfoot -27.6221 -22.9367
rtoes -30.0263
lfemur -47.6144 8.60098 -6.02991
ltibia 87.0279
lfoot -17.7821 -17.38
ltoes -27.2357
407
root -5.64661 14.5663 11.9479 34.2984 48.0377 18.6634
lowerback 31.2939 -3.75401 -1.08834
upperback 2.08896 -5.40425 -2.58075
thorax -14.1528 -2.31211 -0.0536484
lowerneck -5.18027 -16.8534 -13.8133
upperneck -17.7009 -20.215 25.5737
head 0.0146328 -10.4004 9.02407
rclavicle -1.27023e-013 -1.72943e-014
rhumerus -40.6161 4.79216 -85.4548
rradius 79.2765
rwrist -1.1268
rhand -31.7378 0.189628
rfingers 7.12502
rthumb -4.99553 -29.7315
lclavicle -1.27023e-013 -1.72943e-014
lhumerus -27.486 3.76332 86.901
lradius 77.199
lwrist -6.01867
lhand -26.8896 -18.9645
lfingers 7.12502
lthumb -0.313445 11.015
rfemur -66.1964 -16.8164 23.3273
rtibia 95.0114
rfoot -25.9372 -22.5922
rtoes -29.0207
lfemur -49.0929 8.67837 -7.71096
ltibia 88.3103
lfoot -19.1147 -19.4892
ltoes -26.8003
408
root -5.6047 14.6652 12.0527 33.6222 47.1313 17.7414
lowerback 31.2852 -3.48425 -1.05577
upperback 2.0769 -5.04034 -2.50487
thorax -14.154 -2.15396 -0.135154
lowerneck -5.23447 -16.8083 -13.7341
upperneck -17.8537 -20.1301 25.4791
head -0.0585808 -10.3616 9.00479
rclavicle -3.79679e-014 1.74931e-014
rhumerus -40.1466 5.1204 -85.1431
rradius 78.8426
rwrist -1.14752
rhand -31.7562 0.419447
rfingers 7.12502
rthumb -5.01332 -29.5012
lclavicle -3.79679e-014 1.74931e-014
lhumerus -26.6297 2.56979 87.5212
lradius 76.7857
lwrist -5.85991
lhand -27.1914 -19.2248
lfingers 7.12502
lthumb -0.604914 10.7541
rfemur -66.2761 -16.3769 23.8841
rtibia 94.7307
rfoot -23.9406 -21.9094
rtoes -27.8138
lfemur -50.3555 8.5876 -9.28669
ltibia 89.2668
lfoot -20.1112 -21.5818
ltoes -26.3485
409
root -5.55874 14.7573 12.1589 32.8895 46.145 16.7809
lowerback 31.2957 -3.20483 -1.03436
upperback 2.08082 -4.66662 -2.42679
thorax -14.144 -1.99057 -0.211958
lowerneck -5.30036 -16.7417 -13.6571
upperneck -17.9902 -20.0194 25.3428
head -0.135646 -10.3071 8.97583
rclavicle -1.11319e-014 4.37326e-015
rhumerus -39.6237 5.3254 -84.8299
rradius 78.3376
rwrist -1.20886
rhand -31.7981 0.48483
rfingers 7.12502
rthumb -5.05377 -29.4349
lclavicle -1.11319e-014 4.37326e-015
lhumerus -25.8269 1.42408 88.0733
lradius 76.4043
lwrist -5.66263
lhand -27.3821 -19.4945
lfingers 7.12502
lthumb -0.789166 10.4838
rfemur -66.5091 -16.0121 24.4051
rtibia 94.6506
rfoot -21.8165 -20.9215
rtoes -26.4089
lfemur -51.3268 8.34265 -10.7105
ltibia 89.8813
lfoot -20.7905 -23.5273
ltoes -25.8435
